<svg width="32" height="32" viewBox="0 0 32 32" fill="none" xmlns="http://www.w3.org/2000/svg">
<path d="M28.7738 11.4438C21.85 4.51875 10.1488 4.51875 3.22629 11.4438C0.820036 13.8525 0.587536 17.4025 2.66129 20.0763C2.89341 20.3716 3.21442 20.5844 3.57684 20.6832C3.93926 20.7821 4.32387 20.7616 4.67379 20.625L10.7988 18.4525L10.8263 18.4412C11.097 18.3339 11.3364 18.1603 11.5227 17.9365C11.709 17.7127 11.8361 17.4457 11.8925 17.16L12.63 13.47C12.6372 13.4289 12.6549 13.3904 12.6814 13.3582C12.7079 13.326 12.7423 13.3012 12.7813 13.2863C14.8524 12.5674 17.1046 12.5626 19.1788 13.2725C19.2176 13.287 19.2521 13.3114 19.2788 13.3431C19.3055 13.3749 19.3236 13.413 19.3313 13.4537L20.1075 17.1725C20.1664 17.455 20.2942 17.7185 20.4796 17.9397C20.665 18.1608 20.9022 18.3327 21.17 18.44L21.1988 18.45L27.3238 20.625C27.6741 20.7612 28.059 20.7811 28.4214 20.6816C28.7839 20.5821 29.1046 20.3685 29.3363 20.0725C31.4125 17.4025 31.18 13.8525 28.7738 11.4438ZM28.1488 19.1575C28.115 19.1984 28.069 19.2275 28.0175 19.2405C27.966 19.2536 27.9118 19.2499 27.8625 19.23L27.835 19.2188L21.71 17.0462C21.6761 17.0298 21.6463 17.0058 21.6229 16.9761C21.5995 16.9465 21.5831 16.9119 21.575 16.875L20.7975 13.1575C20.7361 12.8626 20.5995 12.5886 20.4011 12.3619C20.2027 12.1353 19.9492 11.9637 19.665 11.8638C17.2739 11.0455 14.6776 11.0512 12.29 11.88C12.0057 11.9821 11.7527 12.1561 11.5555 12.385C11.3584 12.6139 11.2239 12.8899 11.165 13.1862L10.4213 16.875C10.4135 16.9143 10.3964 16.9512 10.3714 16.9825C10.3464 17.0139 10.3142 17.0387 10.2775 17.055L4.16004 19.2188L4.13254 19.23C4.08331 19.2499 4.02903 19.2536 3.97756 19.2405C3.9261 19.2275 3.88012 19.1984 3.84629 19.1575C2.22129 17.065 2.40129 14.3925 4.28754 12.505C7.46129 9.33 11.7313 7.7425 16 7.7425C20.2688 7.7425 24.5388 9.33 27.7125 12.505C29.5988 14.3925 29.7763 17.065 28.1538 19.1575H28.1488ZM27.75 25C27.75 25.1989 27.671 25.3897 27.5304 25.5303C27.3897 25.671 27.1989 25.75 27 25.75H5.00004C4.80112 25.75 4.61036 25.671 4.46971 25.5303C4.32905 25.3897 4.25004 25.1989 4.25004 25C4.25004 24.8011 4.32905 24.6103 4.46971 24.4697C4.61036 24.329 4.80112 24.25 5.00004 24.25H27C27.1989 24.25 27.3897 24.329 27.5304 24.4697C27.671 24.6103 27.75 24.8011 27.75 25Z" fill="white"/>
</svg>
