<svg width="18" height="18" viewBox="0 0 18 18" fill="none" xmlns="http://www.w3.org/2000/svg">
<path d="M1 0C0.734784 0 0.48043 0.105357 0.292893 0.292893C0.105357 0.48043 0 0.734784 0 1C0 5.50868 1.79107 9.8327 4.97918 13.0208C8.1673 16.2089 12.4913 18 17 18C17.2652 18 17.5196 17.8946 17.7071 17.7071C17.8946 17.5196 18 17.2652 18 17V13.5C18 13.2348 17.8946 12.9804 17.7071 12.7929C17.5196 12.6054 17.2652 12.5 17 12.5C15.75 12.5 14.55 12.3 13.43 11.93C13.2542 11.874 13.0664 11.8667 12.8868 11.909C12.7072 11.9513 12.5424 12.0415 12.41 12.17L10.21 14.37C7.37119 12.9262 5.06378 10.6188 3.62 7.78L5.82 5.57C5.95245 5.44434 6.04632 5.28352 6.0906 5.1064C6.13488 4.92928 6.12773 4.7432 6.07 4.57C5.69065 3.41806 5.49821 2.2128 5.5 1C5.5 0.734784 5.39464 0.48043 5.20711 0.292893C5.01957 0.105357 4.76522 0 4.5 0H1ZM16 8V6.5H12.5L18 1L17 0L11.5 5.5V2H10V8H16Z" fill="#F8F8F8"/>
</svg>
