<svg width="36" height="36" viewBox="0 0 36 36" fill="none" xmlns="http://www.w3.org/2000/svg">
<path d="M3 3H16.5V16.5H3V3ZM6 6V13.5H13.5V6H6ZM26.25 6C25.2554 6 24.3016 6.39509 23.5984 7.09835C22.8951 7.80161 22.5 8.75544 22.5 9.75C22.5 10.7446 22.8951 11.6984 23.5984 12.4017C24.3016 13.1049 25.2554 13.5 26.25 13.5C27.2446 13.5 28.1984 13.1049 28.9016 12.4017C29.6049 11.6984 30 10.7446 30 9.75C30 8.75544 29.6049 7.80161 28.9016 7.09835C28.1984 6.39509 27.2446 6 26.25 6ZM19.5 9.75C19.5 8.86358 19.6746 7.98583 20.0138 7.16689C20.353 6.34794 20.8502 5.60382 21.477 4.97703C22.1038 4.35023 22.8479 3.85303 23.6669 3.51381C24.4858 3.17459 25.3636 3 26.25 3C27.1364 3 28.0142 3.17459 28.8331 3.51381C29.6521 3.85303 30.3962 4.35023 31.023 4.97703C31.6498 5.60382 32.147 6.34794 32.4862 7.16689C32.8254 7.98583 33 8.86358 33 9.75C33 11.5402 32.2888 13.2571 31.023 14.523C29.7571 15.7888 28.0402 16.5 26.25 16.5C24.4598 16.5 22.7429 15.7888 21.477 14.523C20.2112 13.2571 19.5 11.5402 19.5 9.75ZM3 19.5H16.5V33H3V19.5ZM6 22.5V30H13.5V22.5H6ZM19.5 19.5H33V33H19.5V19.5ZM22.5 22.5V30H30V22.5H22.5Z" fill="#F8F8F8"/>
</svg>
