<svg width="36" height="36" viewBox="0 0 36 36" fill="none" xmlns="http://www.w3.org/2000/svg">
<path d="M18 10.125C18.89 10.125 19.76 9.86108 20.5001 9.36662C21.2401 8.87215 21.8169 8.16934 22.1575 7.34708C22.4981 6.52481 22.5872 5.62001 22.4135 4.7471C22.2399 3.87418 21.8113 3.07236 21.182 2.44302C20.5526 1.81369 19.7508 1.3851 18.8779 1.21147C18.005 1.03783 17.1002 1.12695 16.2779 1.46754C15.4557 1.80814 14.7529 2.38491 14.2584 3.12494C13.7639 3.86496 13.5 4.73499 13.5 5.625C13.5013 6.81807 13.9759 7.96188 14.8195 8.8055C15.6631 9.64913 16.8069 10.1237 18 10.125ZM18 3.375C18.445 3.375 18.88 3.50696 19.25 3.7542C19.62 4.00143 19.9084 4.35283 20.0787 4.76396C20.249 5.1751 20.2936 5.6275 20.2068 6.06396C20.12 6.50041 19.9057 6.90132 19.591 7.21599C19.2763 7.53066 18.8754 7.74495 18.439 7.83177C18.0025 7.91859 17.5501 7.87403 17.139 7.70373C16.7278 7.53343 16.3764 7.24505 16.1292 6.87503C15.882 6.50502 15.75 6.07001 15.75 5.625C15.7507 5.02847 15.9879 4.45656 16.4098 4.03475C16.8316 3.61294 17.4035 3.37567 18 3.375ZM18 25.875C17.11 25.875 16.24 26.1389 15.4999 26.6334C14.7599 27.1279 14.1831 27.8307 13.8425 28.6529C13.5019 29.4752 13.4128 30.38 13.5865 31.2529C13.7601 32.1258 14.1887 32.9276 14.818 33.557C15.4474 34.1863 16.2492 34.6149 17.1221 34.7885C17.995 34.9622 18.8998 34.8731 19.7221 34.5325C20.5443 34.1919 21.2471 33.6151 21.7416 32.8751C22.2361 32.135 22.5 31.265 22.5 30.375C22.4987 29.1819 22.0241 28.0381 21.1805 27.1945C20.3369 26.3509 19.1931 25.8763 18 25.875ZM18 32.625C17.555 32.625 17.12 32.493 16.75 32.2458C16.38 31.9986 16.0916 31.6472 15.9213 31.236C15.751 30.8249 15.7064 30.3725 15.7932 29.936C15.8801 29.4996 16.0943 29.0987 16.409 28.784C16.7237 28.4693 17.1246 28.2551 17.561 28.1682C17.9975 28.0814 18.4499 28.126 18.861 28.2963C19.2722 28.4666 19.6236 28.755 19.8708 29.125C20.118 29.495 20.25 29.93 20.25 30.375C20.2493 30.9715 20.0121 31.5434 19.5903 31.9653C19.1684 32.3871 18.5965 32.6243 18 32.625ZM18 13.5C17.11 13.5 16.24 13.7639 15.4999 14.2584C14.7599 14.7529 14.1831 15.4557 13.8425 16.2779C13.5019 17.1002 13.4128 18.005 13.5865 18.8779C13.7601 19.7508 14.1887 20.5526 14.818 21.182C15.4474 21.8113 16.2492 22.2399 17.1221 22.4135C17.995 22.5872 18.8998 22.4981 19.7221 22.1575C20.5443 21.8169 21.2471 21.2401 21.7416 20.5001C22.2361 19.76 22.5 18.89 22.5 18C22.4987 16.8069 22.0241 15.6631 21.1805 14.8195C20.3369 13.9759 19.1931 13.5013 18 13.5ZM18 20.25C17.555 20.25 17.12 20.118 16.75 19.8708C16.38 19.6236 16.0916 19.2722 15.9213 18.861C15.751 18.4499 15.7064 17.9975 15.7932 17.561C15.8801 17.1246 16.0943 16.7237 16.409 16.409C16.7237 16.0943 17.1246 15.8801 17.561 15.7932C17.9975 15.7064 18.4499 15.751 18.861 15.9213C19.2722 16.0916 19.6236 16.38 19.8708 16.75C20.118 17.12 20.25 17.555 20.25 18C20.2493 18.5965 20.0121 19.1684 19.5903 19.5903C19.1684 20.0121 18.5965 20.2493 18 20.25Z" fill="#F8F8F8"/>
</svg>
