<svg width="36" height="36" viewBox="0 0 36 36" fill="none" xmlns="http://www.w3.org/2000/svg">
<path d="M18 21V16.5M18 16.5V12M18 16.5H13.5M18 16.5H22.5M10.686 28.0515L8.4 29.8815C7.1505 30.879 6.5265 31.3785 6.0015 31.3785C5.77592 31.3789 5.55317 31.3283 5.34982 31.2307C5.14647 31.133 4.96776 30.9908 4.827 30.8145C4.5 30.405 4.5 29.6055 4.5 28.0065V10.8015C4.5 9.1215 4.5 8.28 4.827 7.6365C5.115 7.0725 5.5725 6.615 6.138 6.327C6.78 6 7.62 6 9.3 6H26.7C28.38 6 29.22 6 29.862 6.327C30.4265 6.61462 30.8854 7.07354 31.173 7.638C31.5 8.2785 31.5 9.1185 31.5 10.7955V22.206C31.5 23.8815 31.5 24.72 31.173 25.362C30.8854 25.9265 30.4265 26.3854 29.862 26.673C29.2215 27 28.383 27 26.706 27H13.6845C13.0605 27 12.747 27 12.4485 27.06C12.1841 27.1149 11.9283 27.2052 11.688 27.3285C11.418 27.4665 11.175 27.66 10.6905 28.0485L10.686 28.0515Z" stroke="#F8F8F8" stroke-width="2" stroke-linecap="round" stroke-linejoin="round"/>
</svg>
