<svg width="36" height="36" viewBox="0 0 36 36" fill="none" xmlns="http://www.w3.org/2000/svg">
<path d="M21 4.125C23.8605 4.125 25.893 4.128 27.435 4.335C28.9425 4.5375 29.8125 4.9185 30.447 5.553C31.1775 6.2835 31.497 6.8505 31.6725 7.86C31.8705 8.9985 31.875 10.62 31.875 13.5C31.875 13.7984 31.9935 14.0845 32.2045 14.2955C32.4155 14.5065 32.7016 14.625 33 14.625C33.2984 14.625 33.5845 14.5065 33.7955 14.2955C34.0065 14.0845 34.125 13.7984 34.125 13.5V13.356C34.125 10.656 34.125 8.829 33.888 7.473C33.6255 5.9655 33.0645 4.989 32.0385 3.963C30.915 2.838 29.4915 2.3415 27.7335 2.1045C26.0235 1.875 23.841 1.875 21.084 1.875H21C20.7016 1.875 20.4155 1.99353 20.2045 2.2045C19.9935 2.41548 19.875 2.70163 19.875 3C19.875 3.29837 19.9935 3.58452 20.2045 3.7955C20.4155 4.00647 20.7016 4.125 21 4.125ZM3 21.375C3.29837 21.375 3.58452 21.4935 3.7955 21.7045C4.00647 21.9155 4.125 22.2016 4.125 22.5C4.125 25.38 4.1295 27.0015 4.3275 28.14C4.5045 29.1495 4.8225 29.7165 5.553 30.447C6.1875 31.0815 7.0575 31.4625 8.5665 31.665C10.1085 31.872 12.1395 31.875 15 31.875C15.2984 31.875 15.5845 31.9935 15.7955 32.2045C16.0065 32.4155 16.125 32.7016 16.125 33C16.125 33.2984 16.0065 33.5845 15.7955 33.7955C15.5845 34.0065 15.2984 34.125 15 34.125H14.916C12.159 34.125 9.975 34.125 8.2665 33.8955C6.5085 33.6585 5.085 33.1605 3.9615 32.0385C2.9355 31.011 2.3745 30.0345 2.112 28.527C1.875 27.171 1.875 25.3425 1.875 22.644V22.5C1.875 22.2016 1.99353 21.9155 2.2045 21.7045C2.41548 21.4935 2.70163 21.375 3 21.375ZM33 21.375C33.2984 21.375 33.5845 21.4935 33.7955 21.7045C34.0065 21.9155 34.125 22.2016 34.125 22.5V22.644C34.125 25.344 34.125 27.171 33.888 28.527C33.6255 30.0345 33.0645 31.011 32.0385 32.037C30.915 33.162 29.4915 33.6585 27.7335 33.8955C26.0235 34.125 23.841 34.125 21.084 34.125H21C20.7016 34.125 20.4155 34.0065 20.2045 33.7955C19.9935 33.5845 19.875 33.2984 19.875 33C19.875 32.7016 19.9935 32.4155 20.2045 32.2045C20.4155 31.9935 20.7016 31.875 21 31.875C23.8605 31.875 25.893 31.872 27.435 31.665C28.9425 31.4625 29.8125 31.0815 30.447 30.447C31.1775 29.7165 31.497 29.1495 31.6725 28.14C31.8705 27.0015 31.875 25.38 31.875 22.5C31.875 22.2016 31.9935 21.9155 32.2045 21.7045C32.4155 21.4935 32.7016 21.375 33 21.375ZM14.916 1.875H15C15.2984 1.875 15.5845 1.99353 15.7955 2.2045C16.0065 2.41548 16.125 2.70163 16.125 3C16.125 3.29837 16.0065 3.58452 15.7955 3.7955C15.5845 4.00647 15.2984 4.125 15 4.125C12.1395 4.125 10.1085 4.128 8.565 4.335C7.0575 4.5375 6.1875 4.9185 5.553 5.553C4.8225 6.2835 4.503 6.8505 4.3275 7.86C4.1295 8.9985 4.125 10.62 4.125 13.5C4.125 13.7984 4.00647 14.0845 3.7955 14.2955C3.58452 14.5065 3.29837 14.625 3 14.625C2.70163 14.625 2.41548 14.5065 2.2045 14.2955C1.99353 14.0845 1.875 13.7984 1.875 13.5V13.356C1.875 10.656 1.875 8.829 2.112 7.473C2.3745 5.9655 2.9355 4.989 3.9615 3.963C5.085 2.838 6.5085 2.3415 8.2665 2.1045C9.9765 1.875 12.159 1.875 14.916 1.875ZM3 16.875C2.70163 16.875 2.41548 16.9935 2.2045 17.2045C1.99353 17.4155 1.875 17.7016 1.875 18C1.875 18.2984 1.99353 18.5845 2.2045 18.7955C2.41548 19.0065 2.70163 19.125 3 19.125H33C33.2984 19.125 33.5845 19.0065 33.7955 18.7955C34.0065 18.5845 34.125 18.2984 34.125 18C34.125 17.7016 34.0065 17.4155 33.7955 17.2045C33.5845 16.9935 33.2984 16.875 33 16.875H3Z" fill="#F8F8F8"/>
</svg>
