<svg width="32" height="32" viewBox="0 0 32 32" fill="none" xmlns="http://www.w3.org/2000/svg">
<g clip-path="url(#clip0_29_25)">
<path d="M30.9481 0.754382C31.3341 1.03508 31.492 1.40935 31.4218 1.87719L26.9306 28.8246C26.8721 29.1637 26.6849 29.4269 26.3692 29.614C26.2054 29.7076 26.0241 29.7544 25.8253 29.7544C25.6966 29.7544 25.5563 29.7251 25.4042 29.6667L16.1586 25.8947L10.9306 31.6316C10.72 31.8772 10.4452 32 10.106 32C9.94226 32 9.80775 31.9766 9.70249 31.9298C9.48027 31.8479 9.30483 31.7105 9.17618 31.5175C9.04752 31.3246 8.98319 31.1111 8.98319 30.8772V22.9474L0.702492 19.5614C0.269743 19.3977 0.0358249 19.076 0.000737156 18.5965C-0.0343506 18.1403 0.152784 17.7953 0.562141 17.5614L29.7551 0.719294C30.1645 0.47368 30.5621 0.485376 30.9481 0.754382ZM24.9481 27.0526L28.8253 3.8421L3.6674 18.3509L9.56214 20.7544L24.7025 9.54386L16.3165 23.5263L24.9481 27.0526Z" fill="white"/>
</g>
<defs>
<clipPath id="clip0_29_25">
<rect width="31.44" height="32" fill="white"/>
</clipPath>
</defs>
</svg>
