<svg width="36" height="36" viewBox="0 0 36 36" fill="none" xmlns="http://www.w3.org/2000/svg">
<path d="M29.8501 18.99C29.6096 18.7162 29.477 18.3643 29.477 18C29.477 17.6356 29.6096 17.2837 29.8501 17.01L31.7701 14.85C31.9817 14.614 32.113 14.317 32.1454 14.0017C32.1777 13.6864 32.1093 13.369 31.9501 13.095L28.9501 7.90496C28.7924 7.63125 28.5524 7.41428 28.2642 7.28499C27.976 7.15571 27.6544 7.1207 27.3451 7.18496L24.5251 7.75496C24.1663 7.82911 23.7927 7.76935 23.4749 7.58696C23.1571 7.40458 22.9171 7.11219 22.8001 6.76497L21.8851 4.01996C21.7845 3.72203 21.5927 3.46326 21.337 3.28023C21.0813 3.09719 20.7746 2.99915 20.4601 2.99996H14.4601C14.133 2.98289 13.8093 3.07335 13.5384 3.25754C13.2676 3.44172 13.0645 3.70949 12.9601 4.01996L12.1201 6.76497C12.0031 7.11219 11.763 7.40458 11.4453 7.58696C11.1275 7.76935 10.7539 7.82911 10.3951 7.75496L7.50009 7.18496C7.20691 7.14354 6.90804 7.1898 6.64111 7.31792C6.37418 7.44605 6.15114 7.65031 6.00009 7.90496L3.00009 13.095C2.83683 13.3659 2.76342 13.6816 2.79036 13.9968C2.8173 14.312 2.94321 14.6106 3.15009 14.85L5.05509 17.01C5.29557 17.2837 5.42819 17.6356 5.42819 18C5.42819 18.3643 5.29557 18.7162 5.05509 18.99L3.15009 21.15C2.94321 21.3893 2.8173 21.6879 2.79036 22.0031C2.76342 22.3183 2.83683 22.634 3.00009 22.905L6.00009 28.095C6.15773 28.3687 6.39777 28.5856 6.68597 28.7149C6.97417 28.8442 7.29582 28.8792 7.60509 28.815L10.4251 28.245C10.7839 28.1708 11.1575 28.2306 11.4753 28.413C11.793 28.5953 12.0331 28.8877 12.1501 29.235L13.0651 31.98C13.1695 32.2904 13.3726 32.5582 13.6434 32.7424C13.9143 32.9266 14.238 33.017 14.5651 33H20.5651C20.8796 33.0008 21.1863 32.9027 21.442 32.7197C21.6977 32.5367 21.8895 32.2779 21.9901 31.98L22.9051 29.235C23.0221 28.8877 23.2621 28.5953 23.5799 28.413C23.8977 28.2306 24.2713 28.1708 24.6301 28.245L27.4501 28.815C27.7594 28.8792 28.081 28.8442 28.3692 28.7149C28.6574 28.5856 28.8974 28.3687 29.0551 28.095L32.0551 22.905C32.2143 22.6309 32.2827 22.3135 32.2504 21.9982C32.218 21.6829 32.0867 21.386 31.8751 21.15L29.8501 18.99ZM27.6151 21L28.8151 22.35L26.8951 25.68L25.1251 25.32C24.0448 25.0991 22.9209 25.2826 21.967 25.8357C21.013 26.3887 20.2953 27.2727 19.9501 28.32L19.3801 30H15.5401L15.0001 28.29C14.6549 27.2427 13.9372 26.3587 12.9832 25.8057C12.0292 25.2526 10.9054 25.0691 9.82509 25.29L8.05509 25.65L6.10509 22.335L7.30509 20.985C8.04302 20.1599 8.45099 19.0919 8.45099 17.985C8.45099 16.8781 8.04302 15.81 7.30509 14.985L6.10509 13.635L8.02509 10.335L9.79509 10.695C10.8754 10.9158 11.9992 10.7323 12.9532 10.1793C13.9072 9.62624 14.6249 8.7422 14.9701 7.69496L15.5401 5.99996H19.3801L19.9501 7.70996C20.2953 8.7572 21.013 9.64124 21.967 10.1943C22.9209 10.7473 24.0448 10.9308 25.1251 10.71L26.8951 10.35L28.8151 13.68L27.6151 15.03C26.8854 15.8531 26.4825 16.915 26.4825 18.015C26.4825 19.1149 26.8854 20.1768 27.6151 21ZM17.4601 12C16.2734 12 15.1134 12.3519 14.1267 13.0111C13.14 13.6704 12.3709 14.6075 11.9168 15.7039C11.4627 16.8002 11.3439 18.0066 11.5754 19.1705C11.8069 20.3344 12.3783 21.4035 13.2174 22.2426C14.0566 23.0817 15.1257 23.6532 16.2895 23.8847C17.4534 24.1162 18.6598 23.9974 19.7562 23.5432C20.8525 23.0891 21.7896 22.3201 22.4489 21.3334C23.1082 20.3467 23.4601 19.1867 23.4601 18C23.4601 16.4087 22.8279 14.8825 21.7027 13.7573C20.5775 12.6321 19.0514 12 17.4601 12ZM17.4601 21C16.8667 21 16.2867 20.824 15.7934 20.4944C15.3 20.1647 14.9155 19.6962 14.6884 19.148C14.4614 18.5998 14.402 17.9966 14.5177 17.4147C14.6335 16.8328 14.9192 16.2982 15.3388 15.8786C15.7583 15.4591 16.2929 15.1734 16.8748 15.0576C17.4568 14.9419 18.06 15.0013 18.6081 15.2283C19.1563 15.4554 19.6249 15.8399 19.9545 16.3333C20.2841 16.8266 20.4601 17.4066 20.4601 18C20.4601 18.7956 20.144 19.5587 19.5814 20.1213C19.0188 20.6839 18.2557 21 17.4601 21Z" fill="#F8F8F8"/>
</svg>
