<svg width="28" height="24" viewBox="0 0 28 24" fill="none" xmlns="http://www.w3.org/2000/svg">
<g clip-path="url(#clip0_4_24)">
<path d="M27.4036 18.9223L22.8564 23.6731C22.7576 23.7763 22.6379 23.8586 22.505 23.9149C22.3721 23.9711 22.2288 24.0001 22.0839 24H0.527899C0.425043 24 0.324428 23.9707 0.238419 23.9158C0.152408 23.8608 0.0847473 23.7826 0.0437498 23.6907C0.00275245 23.5988 -0.00979585 23.4973 0.00764678 23.3985C0.0250894 23.2997 0.071763 23.2081 0.141933 23.1349L4.69257 18.384C4.79116 18.2811 4.91037 18.199 5.04284 18.1427C5.17533 18.0865 5.31824 18.0574 5.46275 18.0571H27.0176C27.1204 18.0571 27.221 18.0864 27.3071 18.1414C27.393 18.1963 27.4606 18.2746 27.5018 18.3664C27.5427 18.4583 27.5553 18.5599 27.5378 18.6586C27.5204 18.7574 27.4737 18.849 27.4036 18.9223ZM22.8564 9.35542C22.7576 9.25222 22.6379 9.16994 22.505 9.1137C22.3721 9.05749 22.2288 9.0285 22.0839 9.02858H0.527899C0.425043 9.02858 0.324428 9.05785 0.238419 9.1128C0.152408 9.16776 0.0847473 9.24597 0.0437498 9.33785C0.00275245 9.42976 -0.00979585 9.53133 0.00764678 9.63008C0.0250894 9.72881 0.071763 9.82045 0.141933 9.89373L4.69257 14.6446C4.79116 14.7475 4.91037 14.8296 5.04284 14.8858C5.17533 14.942 5.31824 14.9712 5.46275 14.9714H27.0176C27.1204 14.9714 27.221 14.9422 27.3071 14.8872C27.393 14.8322 27.4606 14.754 27.5018 14.6621C27.5427 14.5702 27.5553 14.4687 27.5378 14.3699C27.5204 14.2712 27.4737 14.1796 27.4036 14.1063L22.8564 9.35542ZM0.527899 5.94286H22.0839C22.2288 5.94292 22.3721 5.91395 22.505 5.85772C22.6379 5.80148 22.7576 5.7192 22.8564 5.616L27.4036 0.865143C27.4737 0.791883 27.5204 0.700249 27.5378 0.6015C27.5553 0.502751 27.5427 0.40119 27.5018 0.309295C27.4606 0.217399 27.393 0.139172 27.3071 0.0842245C27.221 0.029277 27.1204 3.38384e-06 27.0176 0H5.46275C5.31824 0.000239563 5.17533 0.0293725 5.04284 0.0855949C4.91037 0.141818 4.79116 0.223933 4.69257 0.326858L0.143106 5.07772C0.0730039 5.15089 0.0263509 5.24245 0.00886868 5.34106C-0.00861352 5.43971 0.0038352 5.54119 0.044688 5.63305C0.0855409 5.7249 0.153022 5.80312 0.238856 5.85815C0.32469 5.91319 0.425144 5.94262 0.527899 5.94286Z" fill="url(#paint0_linear_4_24)"/>
</g>
<defs>
<linearGradient id="paint0_linear_4_24" x1="2.32516" y1="24.572" x2="24.2709" y2="-0.822607" gradientUnits="userSpaceOnUse">
<stop offset="0.08" stop-color="#9945FF"/>
<stop offset="0.3" stop-color="#8752F3"/>
<stop offset="0.5" stop-color="#5497D5"/>
<stop offset="0.6" stop-color="#43B4CA"/>
<stop offset="0.72" stop-color="#28E0B9"/>
<stop offset="0.97" stop-color="#19FB9B"/>
</linearGradient>
<clipPath id="clip0_4_24">
<rect width="27.5455" height="24" fill="white"/>
</clipPath>
</defs>
</svg>
