<svg width="32" height="32" viewBox="0 0 32 32" fill="none" xmlns="http://www.w3.org/2000/svg">
<path d="M14.6667 11.7335L10.8 15.6002C10.5555 15.8446 10.2444 15.9669 9.86665 15.9669C9.48887 15.9669 9.17776 15.8446 8.93332 15.6002C8.68887 15.3558 8.56665 15.0446 8.56665 14.6669C8.56665 14.2891 8.68887 13.978 8.93332 13.7335L15.0667 7.60019C15.3333 7.33353 15.6444 7.2002 16 7.2002C16.3555 7.2002 16.6666 7.33353 16.9333 7.60019L23.0666 13.7335C23.3111 13.978 23.4333 14.2891 23.4333 14.6669C23.4333 15.0446 23.3111 15.3558 23.0666 15.6002C22.8222 15.8446 22.5111 15.9669 22.1333 15.9669C21.7555 15.9669 21.4444 15.8446 21.2 15.6002L17.3333 11.7335V22.6669C17.3333 23.0446 17.2053 23.3615 16.9493 23.6175C16.6933 23.8735 16.3769 24.0011 16 24.0002C15.6222 24.0002 15.3053 23.8722 15.0493 23.6162C14.7933 23.3602 14.6658 23.0438 14.6667 22.6669V11.7335Z" fill="white"/>
</svg>
