<svg width="30" height="30" viewBox="0 0 30 30" fill="none" xmlns="http://www.w3.org/2000/svg">
<path d="M8.37337 5.60001L3.66671 10.3333C-0.773293 14.7467 -0.773293 21.92 3.66671 26.3333C8.10671 30.7467 15.2534 30.7733 19.6667 26.3333L27.6667 18.3333C29 17.04 29 14.92 27.6667 13.6133C27.5334 13.4533 27.36 13.3067 27.1734 13.1867L27.6667 12.6667C29 11.3733 29 9.25334 27.6667 7.94668C27.48 7.73334 27.2267 7.54668 27 7.40001C27.5067 6.17334 27.28 4.70668 26.28 3.70668C25.12 2.54668 23.32 2.42668 22.0134 3.33334C21.7421 2.91545 21.3811 2.56321 20.9567 2.30219C20.5323 2.04117 20.0551 1.87793 19.5597 1.82431C19.0644 1.77069 18.5633 1.82804 18.0929 1.99219C17.6225 2.15635 17.1945 2.42319 16.84 2.77334L13.4934 6.12001C13.3734 5.93334 13.2267 5.76001 13.0667 5.60001C12.4375 4.99069 11.5959 4.65001 10.72 4.65001C9.84415 4.65001 9.0026 4.99069 8.37337 5.60001ZM10.2534 7.49334C10.52 7.22668 10.9334 7.22668 11.2 7.49334C11.4667 7.76001 11.4667 8.17334 11.2 8.44001L6.96004 12.68C7.70911 13.43 8.12985 14.4467 8.12985 15.5067C8.12985 16.5667 7.70911 17.5833 6.96004 18.3333L8.84004 20.2133C9.75647 19.2961 10.3858 18.1316 10.651 16.8624C10.9162 15.5932 10.8058 14.2742 10.3334 13.0667L18.7334 4.66668C19 4.40001 19.4134 4.40001 19.6667 4.66668C19.92 4.93334 19.9467 5.34668 19.6667 5.61334L13.5467 11.7467L15.4267 13.6267L23.44 5.61334C23.7067 5.34668 24.12 5.34668 24.3867 5.61334C24.6534 5.88001 24.6534 6.29334 24.3867 6.56001L16.3734 14.5733L18.2534 16.4533L24.8534 9.85334C25.12 9.58668 25.5334 9.58668 25.8 9.85334C26.0667 10.12 26.0667 10.5333 25.8 10.8L18.2534 18.3333L20.1334 20.2267L24.8534 15.5067C25.12 15.24 25.5334 15.24 25.8 15.5067C26.0667 15.7733 26.0667 16.1867 25.8 16.4533L17.8 24.4667C14.4134 27.8533 8.93337 27.8533 5.54671 24.4667C2.16004 21.08 2.16004 15.6 5.54671 12.2133L10.2534 7.49334ZM29.6667 21.6667C29.6667 26.08 26.08 29.6667 21.6667 29.6667V27.6667C25 27.6667 27.6667 25 27.6667 21.6667H29.6667ZM0.333374 8.33334C0.333374 3.92001 3.92004 0.333344 8.33337 0.333344V2.33334C5.00004 2.33334 2.33337 5.00001 2.33337 8.33334H0.333374Z" fill="#F8F8F8"/>
</svg>
