<svg width="20" height="20" viewBox="0 0 20 20" fill="none" xmlns="http://www.w3.org/2000/svg">
<path d="M10 1.25C5.1675 1.25 1.25 5.1675 1.25 10C1.25 14.8325 5.1675 18.75 10 18.75C14.8325 18.75 18.75 14.8325 18.75 10C18.75 5.1675 14.8325 1.25 10 1.25ZM0 10C0 4.477 4.477 0 10 0C15.523 0 20 4.477 20 10C20 15.523 15.523 20 10 20C4.477 20 0 15.523 0 10ZM10 8C10.345 8 10.625 8.28 10.625 8.625V14.875C10.625 15.0408 10.5592 15.1997 10.4419 15.3169C10.3247 15.4342 10.1658 15.5 10 15.5C9.83424 15.5 9.67527 15.4342 9.55806 15.3169C9.44085 15.1997 9.375 15.0408 9.375 14.875V8.625C9.375 8.28 9.655 8 10 8ZM10 6.5C10.2652 6.5 10.5196 6.39464 10.7071 6.20711C10.8946 6.01957 11 5.76522 11 5.5C11 5.23478 10.8946 4.98043 10.7071 4.79289C10.5196 4.60536 10.2652 4.5 10 4.5C9.73478 4.5 9.48043 4.60536 9.29289 4.79289C9.10536 4.98043 9 5.23478 9 5.5C9 5.76522 9.10536 6.01957 9.29289 6.20711C9.48043 6.39464 9.73478 6.5 10 6.5Z" fill="white"/>
</svg>
