<svg width="29" height="29" viewBox="0 0 29 29" fill="none" xmlns="http://www.w3.org/2000/svg">
<path fill-rule="evenodd" clip-rule="evenodd" d="M12.75 2.8753e-08C10.7169 0.000173237 8.71331 0.486546 6.9064 1.41854C5.09949 2.35054 3.54165 3.70113 2.36287 5.35763C1.18408 7.01414 0.418529 8.92852 0.130076 10.9411C-0.158376 12.9536 0.0386381 15.006 0.704682 16.9269C1.37073 18.8478 2.48648 20.5816 3.95887 21.9836C5.43126 23.3856 7.21757 24.4152 9.16879 24.9864C11.12 25.5576 13.1795 25.654 15.1755 25.2674C17.1716 24.8808 19.0462 24.0224 20.643 22.764L26.121 28.242C26.4039 28.5152 26.7828 28.6664 27.1761 28.663C27.5694 28.6596 27.9456 28.5018 28.2237 28.2237C28.5019 27.9456 28.6596 27.5694 28.663 27.1761C28.6664 26.7828 28.5153 26.4039 28.242 26.121L22.764 20.643C24.246 18.7629 25.1688 16.5036 25.4267 14.1236C25.6846 11.7436 25.2672 9.33903 24.2224 7.18514C23.1775 5.03125 21.5473 3.21503 19.5185 1.94435C17.4896 0.67366 15.144 -0.000160715 12.75 2.8753e-08ZM3.00001 12.75C3.00001 10.1641 4.02724 7.68419 5.85572 5.85571C7.6842 4.02723 10.1642 3 12.75 3C15.3359 3 17.8158 4.02723 19.6443 5.85571C21.4728 7.68419 22.5 10.1641 22.5 12.75C22.5 15.3359 21.4728 17.8158 19.6443 19.6443C17.8158 21.4728 15.3359 22.5 12.75 22.5C10.1642 22.5 7.6842 21.4728 5.85572 19.6443C4.02724 17.8158 3.00001 15.3359 3.00001 12.75Z" fill="#F8F8F8"/>
</svg>
