<svg width="54" height="51" viewBox="0 0 54 51" fill="none" xmlns="http://www.w3.org/2000/svg">
<path d="M30.9999 0C37.0115 0 42.7769 2.38809 47.0277 6.63891C51.2785 10.8897 53.6666 16.6551 53.6666 22.6667C53.6666 28.6782 51.2785 34.4436 47.0277 38.6944C42.7769 42.9452 37.0115 45.3333 30.9999 45.3333H29.6666V47.9733C29.6666 48.3273 29.5968 48.6777 29.4613 49.0046C29.3258 49.3316 29.1272 49.6286 28.8768 49.8787C28.6264 50.1289 28.3292 50.3272 28.0021 50.4624C27.675 50.5976 27.3245 50.667 26.9706 50.6667C20.4106 50.6613 13.7653 48.472 8.72259 43.9893C3.63459 39.4613 0.338585 32.7333 0.333252 24.024V22.6667C0.333252 16.6551 2.72134 10.8897 6.97217 6.63891C11.223 2.38809 16.9883 0 22.9999 0H30.9999ZM30.9999 5.33333H22.9999C18.4028 5.33333 13.994 7.15952 10.7434 10.4101C7.49277 13.6608 5.66659 18.0696 5.66659 22.6667L5.66925 24.44C5.77592 31.4853 8.44525 36.6053 12.2693 40.0027C15.5706 42.9413 19.8453 44.6933 24.3333 45.1867V42.6933C24.3333 41.2053 25.5386 40 27.0266 40H30.9999C35.597 40 40.0058 38.1738 43.2564 34.9232C46.5071 31.6726 48.3333 27.2638 48.3333 22.6667C48.3333 18.0696 46.5071 13.6608 43.2564 10.4101C40.0058 7.15952 35.597 5.33333 30.9999 5.33333ZM17.6666 18.6667C18.7275 18.6667 19.7449 19.0881 20.495 19.8382C21.2452 20.5884 21.6666 21.6058 21.6666 22.6667C21.6666 23.7275 21.2452 24.7449 20.495 25.4951C19.7449 26.2452 18.7275 26.6667 17.6666 26.6667C16.6057 26.6667 15.5883 26.2452 14.8382 25.4951C14.088 24.7449 13.6666 23.7275 13.6666 22.6667C13.6666 21.6058 14.088 20.5884 14.8382 19.8382C15.5883 19.0881 16.6057 18.6667 17.6666 18.6667ZM36.3333 18.6667C37.3941 18.6667 38.4115 19.0881 39.1617 19.8382C39.9118 20.5884 40.3333 21.6058 40.3333 22.6667C40.3333 23.7275 39.9118 24.7449 39.1617 25.4951C38.4115 26.2452 37.3941 26.6667 36.3333 26.6667C35.2724 26.6667 34.255 26.2452 33.5048 25.4951C32.7547 24.7449 32.3333 23.7275 32.3333 22.6667C32.3333 21.6058 32.7547 20.5884 33.5048 19.8382C34.255 19.0881 35.2724 18.6667 36.3333 18.6667Z" fill="#F8F8F8"/>
</svg>
